<svg width="38" height="38" viewBox="0 0 38 38" fill="none" xmlns="http://www.w3.org/2000/svg">
<rect width="38" height="38" fill="#037EF3"/>
<path fill-rule="evenodd" clip-rule="evenodd" d="M2.09912 33.3375C2.38029 32.9341 3.11583 32.1921 4.5 31.5C5.99576 30.7521 14.891 14.7975 19.9925 5.36875C20.3952 4.62457 21.4808 4.68121 21.7989 5.46529C25.6339 14.9194 32 30.8819 32 32C32 32.8721 32.8803 33.0928 33.6813 33.0843C34.1077 33.0798 34.5 33.3978 34.5 33.8243C34.5 34.1975 34.1975 34.5 33.8243 34.5H21.618C21.2767 34.5 21 34.2233 21 33.882C21 33.6479 21.1323 33.435 21.3384 33.324C22.3916 32.7565 24 31.7174 24 31C24 30 23 25 22 24.5C21 24 12.5 24 11.5 24.5C10.5 25 8 30.5 8.5 31C8.90244 31.4024 10.6005 32.4527 11.7693 32.8472C12.1617 32.9797 12.5 33.3358 12.5 33.75C12.5 34.1642 12.1642 34.5 11.75 34.5H2.80902C2.36221 34.5 2 34.1378 2 33.691C2 33.5654 2.0273 33.4405 2.09912 33.3375ZM18.7994 14.3537C18.4753 13.5922 17.4211 13.542 17.0192 14.2655L13.7247 20.1956C13.3791 20.8175 13.7753 21.5898 14.4835 21.6588C17.4479 21.9472 21.5 22.1765 21.5 21.5C21.5 20.8578 19.9962 17.1649 18.7994 14.3537Z" fill="white"/>
</svg>
