<svg width="158" height="23" viewBox="0 0 158 23" fill="none" xmlns="http://www.w3.org/2000/svg">
<path fill-rule="evenodd" clip-rule="evenodd" d="M45.2209 6.76878L44.2787 16.4804L44.1615 17.5114L44.013 17.8649L43.9564 18.2162L43.8079 18.5114L43.6003 18.7175L43.3643 18.9256L43.1006 19.1294L42.7166 19.2487L42.3336 19.4219L42.2458 19.4817L42.0974 19.5978L42.0395 19.8048L41.9496 19.9533V20.0693L42.0395 20.1586L42.0974 20.2175L42.2458 20.2759H53.977L54.4471 20.0693L54.9204 19.8917L55.3608 19.4815L55.7161 19.1878L56.0681 18.7739L56.3356 18.363L56.482 17.9216L56.6906 17.5097L56.8962 16.95L56.9538 16.4488L57.0426 15.9498V15.8028L56.9538 15.5957V15.5086L56.8962 15.4493H56.5421L56.4224 15.5957L56.0684 16.0099L55.6265 16.5683L55.3613 16.8899L55.0082 17.1546L54.627 17.5087L54.1542 17.8033L53.6529 18.0666L53.0025 18.3617L52.2974 18.5671L51.5304 18.7155L50.7044 18.8338H49.2333L48.8775 18.7734L48.6115 18.7158L48.4651 18.6292L48.4064 18.5099L48.3478 18.363L48.258 18.2145L48.2011 17.8632V17.3914L48.258 16.7152L48.5539 12.2738L48.6128 12.0083L48.6727 11.8025L48.732 11.6541L48.9681 11.538L49.0846 11.3896L49.38 11.299H49.764L50.2046 11.2429L50.7053 11.299H51.5314L51.8852 11.4475L52.238 11.5944L52.505 11.801L52.7116 12.0964L52.9169 12.4472L53.0631 12.6558V12.9477L53.2116 13.3896L53.2702 13.5363V13.6251L53.358 13.6845L53.4778 13.801H53.6532L53.8298 13.6845L53.9187 13.6251L53.9773 13.5363L54.0666 13.302V13.0667L54.1544 11.8893L54.2148 10.7723L54.3016 10.1229L54.4194 9.53329V8.9749L54.5372 8.38805V7.8873L54.4483 7.73886L54.4194 7.68047H54.3605L54.215 7.59017L54.0666 7.68047H53.9182L53.8293 7.73886L53.7116 8.03352L53.4773 8.47588L53.2697 8.88929L53.0023 9.21241L52.6507 9.47763L52.2365 9.68421L51.8241 9.85913L51.3231 9.9185L50.853 9.97739H49.2912L49.1724 9.9185L49.0252 9.85913L48.878 9.77253V9.47787L49.2912 4.91596V4.56192L49.3795 4.26726L49.4683 4.0624L49.5566 3.94464L49.645 3.79793L49.9102 3.70861L50.0586 3.65072H52.0327L53.0042 3.70861L53.8313 3.79793L54.2163 3.85731L54.4496 4.00327L54.7759 4.06216L55.01 4.20936L55.2175 4.35632L55.363 4.56167L55.5114 4.68092L55.5681 4.97508L55.7166 5.20938V5.38528L55.7754 6.03522V6.21014L55.864 6.41622V6.56219L55.9219 6.62207H56.0684L56.1861 6.71138L56.4226 6.62207L56.5424 6.56219L56.5998 6.41622L56.6911 6.26778V5.32566L56.748 4.91472V4.47335L56.8366 4.06092L56.8964 3.59085L56.9541 3.14799V2.4414L56.8363 2.35258H56.6908L56.3356 2.26475H43.6011L43.3069 2.35258H43.1887L43.1016 2.41023L43.0405 2.53071L42.9818 2.67569V2.7655L43.0405 2.94042L43.1016 3.08886L43.2478 3.14725L43.7201 3.29569L44.2201 3.44067H44.4282L44.6043 3.5911L44.7513 3.64874L44.8977 3.79595L44.9579 4.0013L45.1063 4.20738L45.1647 4.67919L45.2221 5.20765V6.76878H45.2209ZM58.3395 15.5975L58.8715 19.2489L58.9603 19.3355L59.0202 19.4233L59.2248 19.5426L59.4311 19.5992H59.6377L60.7881 19.9555L61.8767 20.2197L62.4373 20.2781L63.0546 20.4553L63.6162 20.5424H64.8532L65.6202 20.3647L66.2387 20.2197L66.8276 20.0139L67.3582 19.7197L67.859 19.3363L68.2729 18.9837L68.7769 18.57L69.1304 18.1586L69.4839 17.7467L69.7489 17.1878L70.0743 16.7177L70.2791 16.217L70.3684 15.7172L70.5438 15.2471L70.6334 14.7449V13.5376L70.4563 13.0091L70.3385 12.5079L70.19 12.0081L69.9835 11.5957L69.6881 11.3003L69.4246 10.9499L69.0406 10.5974L68.7175 10.3314L68.3622 10.1238L68.0087 9.91801L67.1836 9.47763L66.2414 9.12408L64.5311 8.47588L63.7642 8.15277L63.0553 7.80021L62.7906 7.59214L62.496 7.3868L62.2901 7.12356L62.0558 6.88704L61.9361 6.62231L61.8777 6.26877L61.821 5.91572L61.8777 5.47608V5.26851L61.9361 4.97533L62.0266 4.76677L62.1142 4.56192L62.2904 4.35657L62.4388 4.12129L62.6447 4.00352L62.8512 3.79818L63.2647 3.59332L63.824 3.3573L64.3248 3.23854L64.8555 3.15022L65.328 3.23854L65.6806 3.29792L66.0359 3.3573L66.3884 3.50327L66.7419 3.65171L67.0972 3.79892L67.4498 4.00426L67.7167 4.268L68.0099 4.47557L68.2761 4.76776L68.5403 5.15248L68.7774 5.38677L69.0411 5.76926L69.1895 6.0367L69.336 6.41771L69.4258 6.83013L69.5742 7.18269L69.6324 7.53623L69.6908 7.59338L69.8095 7.68369L69.8697 7.74207H70.1329L70.3405 7.68369L70.4582 7.59338L70.6354 7.44618V3.15121L70.6925 2.94364L70.6354 2.67891L70.4582 2.62052H70.2811L70.0762 2.67891L69.7509 2.76872L69.4265 2.94364L69.1324 3.00474L68.7788 2.94364L68.4241 2.88698L67.5104 2.44462L67.0368 2.3558L66.3896 2.14996L65.6821 2.06337L64.8572 1.94362L64.3265 2.06337L63.7664 2.14996L63.2664 2.26822L62.7058 2.41369L62.204 2.62077L61.823 2.94388L61.3789 3.24077L60.9959 3.59555L60.583 3.94711L60.3153 4.26874L59.9922 4.68265L59.728 5.15272L59.4915 5.65248L59.3742 6.09385L59.2258 6.62405V8.30171L59.3156 8.89127L59.4321 9.42146L59.5805 9.8611L59.7859 10.272L60.0511 10.5984L60.3755 10.9509L60.7295 11.2478L61.0825 11.542L61.4343 11.8057L61.8218 12.0116L62.6451 12.4517L63.4705 12.8364L65.1504 13.4527L65.9777 13.6892L66.6833 14.1311L67.0359 14.3364L67.2439 14.543L67.5092 14.7484L67.6556 15.043L67.8041 15.3077L67.9211 15.6014V16.3929L67.8624 16.7182L67.8041 17.0413L67.717 17.3944L67.596 17.6591L67.45 17.9243L67.2442 18.1596L67.0361 18.3657L66.8313 18.571L66.5344 18.7195L66.3011 18.9275L66.0359 18.9847L65.6806 19.1314L65.3864 19.2507H65.0611L64.3837 19.3372H63.9715L63.5279 19.2507L63.1459 19.1913L62.704 18.9847L62.351 18.8377L62.0269 18.7195L61.6122 18.4253L61.3774 18.2182L61.0823 17.9251L60.7886 17.6598L60.5227 17.2764L60.3141 16.9547L59.844 16.2192L59.4892 15.5114L59.372 15.1573L59.2235 14.8043L59.1656 14.6877L59.0192 14.5393L58.9593 14.4804L58.7547 14.3916L58.4578 14.4804L58.3378 14.5393L58.2502 14.6877L58.1614 14.7454V14.9827L58.2502 15.1581L58.3395 15.5975ZM73.8165 6.76878L72.814 16.4804V17.0401L72.7252 17.5102L72.6074 17.8637L72.459 18.215L72.3125 18.5102L72.1069 18.7185L71.9004 18.9266L71.6361 19.1304L71.2833 19.2497L70.9281 19.4228L70.7796 19.4827L70.6898 19.5988L70.5433 19.8058V20.0706L70.6329 20.1599L70.69 20.2188L70.8677 20.2771H82.6019L83.0126 20.0706L83.5156 19.8929L83.9268 19.4827L84.2516 19.189L84.6044 18.7751L84.8709 18.3642L85.0193 17.9228L85.4312 16.9513L85.549 16.45L85.6076 15.951V15.804L85.549 15.597L85.4891 15.5099V15.4527H85.1074L84.9589 15.5992L84.6049 16.0133L84.1309 16.571L83.8367 16.8926L83.5151 17.1574L83.1593 17.5114L82.7179 17.806L82.1563 18.0693L81.568 18.3644L80.832 18.5698L80.0952 18.7182L79.2399 18.8365H77.8544L77.4719 18.7761L77.2354 18.7185L77.0593 18.6319L76.9994 18.5126L76.851 18.3657L76.7634 18.2172L76.7032 17.8659V16.718L77.1451 12.2738L77.2349 12.0083L77.2931 11.8025L77.3235 11.6541L77.4719 11.538L77.705 11.3896L78.0019 11.299H78.3262L78.7669 11.2429L79.2397 11.299H80.0949L80.5054 11.4475L80.7728 11.5944L81.0672 11.801L81.3315 12.0964L81.5089 12.4472L81.5677 12.6558L81.6543 12.9477L81.833 13.3896L81.9814 13.6249V13.6843L82.0992 13.8008H82.2476L82.4542 13.6843V13.6249L82.6026 13.5361L82.6593 13.3018V13.0665L82.7192 12.448V11.8901L82.8075 10.773L82.9559 9.53403L83.0136 8.38879L83.0725 8.09191V7.73886L83.0136 7.68047H82.9559L82.8075 7.59017L82.659 7.68047H82.5121L82.4537 7.73886L82.3072 8.03352L82.0997 8.47365L81.8931 8.88707L81.569 9.21018L81.2746 9.4754L80.7738 9.68198L80.3609 9.8569L79.8592 9.91628L79.3874 9.97516H77.9141L77.7055 9.91628L77.559 9.8569L77.3829 9.77031V9.47565L77.8547 4.91373V4.55969L77.9141 4.26503L78.0029 4.06018L78.1483 3.94241L78.2671 3.7957L78.5036 3.70639L78.6201 3.64849H80.5682L81.5697 3.70639L82.4544 3.7957L82.7197 3.85508L83.0727 4.00105L83.2781 4.05993L83.5735 4.20714L83.6912 4.3541L83.928 4.55944L84.0453 4.67869L84.1329 4.97286L84.1922 5.20715L84.2528 5.38306L84.3394 6.03299V6.414L84.3993 6.55997L84.4879 6.61984H84.5468L84.6648 6.70915L84.9597 6.61984L85.1081 6.55997L85.1658 6.414L85.2556 6.26555V4.91571L85.3427 4.47434L85.432 3.59283L85.5497 2.67743V2.53245L85.4899 2.44313L85.4322 2.35431H85.2558L84.9305 2.26649H72.1955L71.9001 2.35431H71.7517L71.693 2.41196L71.6351 2.53245L71.5458 2.67743V2.76724L71.6351 2.94215L71.7519 3.09059L71.8397 3.14898L72.3116 3.29743L72.8133 3.44241H73.0471L73.1658 3.59283L73.2848 3.65047L73.4333 3.79768L73.551 4.00303L73.6097 4.20912L73.7561 4.68092L73.816 5.20938L73.8165 6.76878ZM32.4888 20.2771H40.0053L40.1537 20.2188L40.2693 20.1599L40.4467 20.0706L40.5078 19.9545L40.4467 19.5988L40.3581 19.4228L40.2096 19.2497H39.7396L39.4452 19.1304L39.0612 18.9837L38.797 18.7761L38.4716 18.5124L38.3529 18.3654L38.2952 18.1593L38.2358 17.9241L38.1176 17.6588V17.1581L39.2089 5.38528L39.2967 4.76677L39.3865 4.41644L39.4452 4.12104L39.6508 3.85731L39.8573 3.65072L40.1542 3.44265L40.5083 3.29767L41.0662 3.09158L41.1832 3.00326L41.3316 2.94215L41.4801 2.76724V2.53245L41.3903 2.41196L41.3326 2.35431H41.2715L41.0667 2.26649H33.8738L33.4597 2.35431H33.2553L33.1088 2.41196L33.049 2.53245L32.9614 2.67743V3.00326L33.049 3.14972L33.2556 3.29817H33.4599L33.814 3.35755L34.288 3.44315L34.551 3.59357L34.8454 3.70911L35.024 4.06265L35.2007 4.41669L35.3471 4.82763L35.26 5.38603L34.2291 17.1583L34.1705 17.4537L34.0515 17.8662L33.8751 18.2175L33.7573 18.571L33.4604 18.9268L33.3152 19.0708L33.2563 19.1905L33.0497 19.2499L32.8444 19.3365L32.6959 19.4243H32.4898L32.2229 19.3365L32.0744 19.2499L31.9285 19.1905L31.7214 19.0708L31.428 18.7185L31.2493 18.3654L31.1029 17.9241L30.8379 17.5121L30.6895 16.7177L25.4128 2.5322L25.2973 2.2081L25.1473 2.06163L25.0607 1.94189L24.8532 2.06163L24.7349 2.2081L24.5009 2.44289L24.3225 2.9419L15.5396 18.0107L15.3946 18.3652L15.1541 18.6321L14.9166 18.837L14.595 19.1307L14.328 19.2499L13.9762 19.4231L13.7392 19.483L13.6818 19.599L13.5333 19.8061V20.1601L13.6217 20.219L13.682 20.2774H19.9909L20.0475 20.219L20.1062 20.1601V19.8071L19.9906 19.6L19.8422 19.484L19.6359 19.4241L19.0752 19.2509L18.4874 19.1317L18.1027 18.9278L17.7796 18.6331L17.601 18.5139L17.5433 18.3669L17.4844 18.2185V18.0121L17.5433 17.5713L17.6917 16.9527L17.8983 16.3926L18.1925 15.7174L18.5465 15.1568L18.8118 14.9814L18.9582 14.7449L19.1925 14.5395L19.4293 14.3911L19.6364 14.3322H24.5887L25.2072 14.3911L25.4121 14.4799L25.5605 14.5388L25.7089 14.6873L25.8267 14.7449L26.0031 15.0396L26.1219 15.3043L26.3871 16.3345L26.6825 17.1883L26.7401 17.6583V17.9236L26.6825 18.2167L26.6513 18.5119L26.5029 18.718L26.3265 18.9261L26.178 19.07L26.0026 19.2492L25.7678 19.337L25.5615 19.4248L25.2977 19.4854L25.0612 19.5448L24.9445 19.7215L24.8524 19.8071L24.7945 19.8942V20.0718L24.943 20.2202L25.0597 20.2786H32.4884L32.4888 20.2771ZM20.5508 11.801L22.5236 8.23985L22.701 7.8873L22.8786 7.68072V7.59041H23.084L23.2022 7.68072L23.4669 8.0355L24.8524 11.6548L25.1466 12.302L25.2069 12.5081V12.7434H25.1466L25.06 12.8332H24.9432L24.5879 12.8916H20.7556L20.4602 12.8332H20.3422L20.2828 12.7434L20.1957 12.6573V12.5088L20.2828 12.3028L20.4026 12.0984L20.5508 11.801ZM148.572 4.8254L148.631 4.61882L148.779 4.41446L148.986 4.00154L149.28 3.59134L149.399 3.35532L149.459 3.14824L149.574 2.67594V0.911196L149.664 0.616535L149.722 0.411189L149.782 0.352306L149.987 0.205842L150.133 0.145475L150.4 0.0860973L150.695 0L151.048 0.0860973L151.285 0.145475L151.551 0.205842L151.785 0.411189L151.846 0.55889L151.903 0.707333L151.961 0.973295L152.05 1.20759V1.70834L151.903 2.14922L151.785 2.53319L151.608 2.88624L151.432 3.09208L151.285 3.15047L151.108 3.23879H151.048L150.901 3.15047L150.843 3.50351L150.812 3.79818V4.20961L150.901 4.56216L151.108 5.15173L151.285 5.38603L151.344 5.76852L151.432 6.09262V7.53574L151.492 7.88977L151.551 8.03624L151.608 8.24208L152.05 8.74283L152.758 9.47837L153.171 9.77303L153.733 10.1251L154.205 10.4776L154.352 10.5969L154.408 10.7745L154.499 10.9494V11.0944L154.408 11.2453L154.29 11.3015L154.086 11.4499H153.848L153.437 11.5398L153.378 11.3017L153.23 11.038L153.024 10.7748L152.757 10.5373L152.492 10.2708L152.138 10.0655L151.784 9.86012L151.491 9.6852V10.9499L151.607 11.54L151.844 12.0101L151.959 12.5707L152.197 13.3052L152.757 14.7469L153.229 15.9542L153.436 16.4532L153.524 16.7197L153.847 17.6598L154.144 18.5136L154.499 19.2509L154.997 20.2796L155.087 20.4568L155.236 20.6037L155.384 20.6609L155.618 20.6908H156.444L156.858 20.6609L157.153 20.6908L157.27 20.7801L157.329 20.8684L157.418 21.0144V21.1629L156.591 21.3694L155.974 21.5748L155.236 21.7819L154.764 21.9862L154.558 22.0773H154.291L154.206 21.9862L154.145 21.8692L154.086 21.7821L153.998 21.5174L153.85 21.1633L153.439 20.3674L152.966 19.5458L152.553 18.7789L152.2 17.9268L151.905 17.4567L151.61 16.956L150.903 15.9557L150.638 15.5143L150.343 15.0443L150.226 14.544L150.077 14.3374V14.0133L149.988 14.544L149.871 14.9859L149.722 15.3978L149.574 15.8097L149.133 16.5752L148.631 17.1937L147.628 18.7185L147.07 19.4241L146.596 20.2784L146.45 20.5426L146.391 20.6898V20.9545L146.45 21.1611L146.507 21.3083L146.596 21.4568L146.862 21.6611L147.07 21.8677L147.306 22.0758L147.364 22.1342L147.306 22.222L147.246 22.2809L147.07 22.3393L146.921 22.4271H146.391L146.242 22.3393L146.094 22.2809L145.831 21.984L145.387 21.5139L145.034 21.1599L144.857 20.8662L144.711 20.6886V20.5414L144.767 20.2771L145.034 19.8071L145.271 19.484L145.328 19.2497L145.74 18.7185L146.185 18.07L146.507 17.3939L146.804 16.6573L147.011 16.07L147.247 15.5982L147.365 15.0398L147.421 14.6873V14.2738L147.806 11.9482L147.955 10.682L148.013 9.47688L147.864 9.85838L147.748 10.2693L147.482 11.183L147.365 12.0984L147.307 12.7441L146.922 12.8926L146.718 12.9505L146.508 13.0103H146.304L146.187 12.9505L146.037 12.8344L145.949 12.5702V12.4497L146.037 12.1578L146.303 11.5972L146.597 11.0383L146.686 10.8317L146.717 10.6832L146.804 10.1248L146.862 9.53527L147.189 8.53649L147.421 7.59239L147.806 6.76878L148.365 5.47484L148.572 5.15025V4.82615L148.572 4.8254ZM103.796 6.35685L103.737 2.76575V2.67594L103.647 2.61755L103.589 2.53096L103.44 2.44165L103.237 2.53096L103.029 2.61755L102.881 2.766L102.821 2.94091L102.673 3.08936L102.526 3.23607L102.407 3.35482H102.172L101.819 3.29545L101.407 3.147L100.227 2.67471L99.4601 2.40924L98.5759 2.20538L97.664 2.05891H97.16L96.66 1.93917L95.8055 2.05891L94.9507 2.1455L94.037 2.26376L93.2997 2.52973L92.4462 2.88451L91.5338 3.23706L90.7965 3.70713L90.0882 4.20788L89.7334 4.56043L89.3806 4.8259L89.1139 5.21012L88.7019 5.53546L88.437 5.97559L88.1722 6.35907L87.8754 6.82914L87.6705 7.24108L87.4041 7.74108L87.2556 8.24183L87.051 8.83041L86.8457 9.41998L86.6972 9.97788L86.55 10.537L86.4924 11.1842L86.4018 11.8027V12.3616L86.3125 12.8918L86.4018 13.3913V13.8028L86.4924 14.2728L86.6378 14.7429L86.7558 15.1548L86.8454 15.5089L87.0508 15.9503L87.1685 16.3327L87.6116 17.0388L88.0817 17.6574L88.6428 18.2158L89.2613 18.717L89.9375 19.1888L90.6164 19.5418L91.4128 19.9543L92.1797 20.2185L93.0046 20.3635L93.7715 20.5411H95.5689L96.0425 20.454L96.5126 20.2769L97.3968 20.0703L98.2229 19.8056L98.9898 19.4825L99.6962 19.1289L100.374 18.717L100.935 18.2751L101.465 17.8642L101.937 17.4518L102.32 17.0393L102.673 16.5693L102.97 16.2157L103.175 15.951L103.236 15.6568L103.322 15.5096V15.3043L103.236 15.2471L103.175 15.1568H102.882L102.763 15.2471L102.409 15.3931L102.087 15.7172L101.82 15.9525L101.26 16.4515L100.612 16.9527L99.904 17.3941L99.1959 17.7477L98.429 18.0109L97.6652 18.2769L96.8369 18.4253H95.3631L94.8047 18.2769L94.1862 18.0703L93.6854 17.807L93.2154 17.4535L92.6837 17.0411L92.274 16.571L91.9177 16.0702L91.5357 15.5111L91.2705 14.8926L91.0629 14.2741L90.8564 13.5381L90.7987 12.8918L90.7104 12.0979V10.683L90.8564 9.68421L90.9751 8.74209L91.1807 7.88878L91.4749 7.12331L91.8002 6.41622L92.0659 5.85783L92.5063 5.26826L92.8326 4.82689L93.3324 4.41595L93.7765 4.06191L94.2762 3.79768L94.8069 3.59283L95.3077 3.3568L95.8671 3.29743L96.517 3.23805L97.1061 3.14972L97.6078 3.23805H97.9618L98.3728 3.3568L98.7867 3.44241L99.1407 3.59283L99.5527 3.79768L99.9067 4.00303L100.318 4.26676L100.702 4.56142L100.939 4.82689L101.321 5.20938L101.676 5.65075L101.941 6.03522L102.236 6.47536L102.53 6.97561L102.824 7.5345L102.884 7.74034L103.033 7.94791L103.179 8.15227L103.24 8.24109L103.387 8.29948L103.504 8.24109L103.74 8.09265L103.799 7.88779V7.73935L103.86 7.44246L103.799 7.12084V6.35586L103.796 6.35685ZM140.937 16.48L140.817 17.0396L140.731 17.5097L140.495 18.2741L140.376 18.9812L140.26 20.7764V21.0107L140.319 21.1591L140.376 21.218L140.496 21.3665L140.817 21.5718L141.173 21.7789L141.791 22.074L141.911 22.22L141.996 22.2789L141.911 22.3373H141.851L141.792 22.4251H139.05L138.932 22.3373L138.843 22.2789V21.9273L138.932 21.7208L139.05 21.5723L139.109 21.4558L139.166 21.1606V20.7794L139.257 20.2786L139.166 19.4243L139.109 18.571V18.1596L139.166 17.7477L138.226 18.2769L137.694 18.6321L137.457 18.9268L137.193 19.1905L137.045 19.2499V19.3365L136.987 19.6002L137.045 20.0144L137.105 20.2786L137.254 21.0137V21.2203L137.194 21.3687L137.045 21.4575L136.987 21.3687L136.693 21.1621L136.309 20.6027L135.926 19.8071L135.603 19.4241L135.572 19.1903V18.9837L135.603 18.8367L136.131 18.7185L136.251 18.57L136.485 18.4236L137.045 17.8051L137.604 17.1865L138.226 16.4795L138.578 16.1559L139.108 15.8033L139.257 15.5962L139.435 15.1548L139.552 14.9794L139.611 14.7429V14.5376L139.552 14.3891L139.166 13.6237L138.843 12.9465L138.578 12.1548L138.432 11.7416L138.313 11.2436L138.226 10.682V10.1535L138.313 9.77154L138.432 9.35862L138.578 8.97564L138.667 8.5355L138.726 8.09314V7.5914L138.577 7.73985L138.431 7.88829L138.312 8.29923L138.018 9.21191L137.694 10.0645L137.604 10.3319L137.518 10.5363L137.457 10.5961L137.339 10.8304L137.253 11.0937L137.105 11.1835L137.045 11.2444L136.899 11.3005L136.693 11.2444L136.545 11.1835L136.485 11.037L136.397 10.9487L136.485 10.8304L136.692 10.5961L136.839 10.4769L136.986 10.2698L137.044 9.9185L137.104 9.47763L137.253 8.80097V8.74209L137.456 7.88878L137.604 7.44469L138.018 6.56195L138.225 6.03497L138.373 5.53422L138.52 5.15074L138.577 4.62006L138.665 4.20862L138.783 4.00253L138.842 3.79719L139.107 3.35631L139.255 2.94166L139.372 2.41147L139.551 1.8835V1.64748L139.609 1.32436L139.697 1.05791L139.784 0.765226L139.933 0.499265L140.258 0.264972L140.493 0.146217L140.669 0.0868395H140.816L141.171 0.146217L141.379 0.206584L141.554 0.264972L141.643 0.412178L141.791 0.706344L141.911 0.912186V1.47132L141.996 1.59008V1.70735L141.911 1.88375V2.14798L141.851 2.26599L141.792 2.44239L141.644 2.61854L141.555 2.67693L141.438 2.76674L141.29 2.885L141.171 2.76674V2.88451H141.025V2.94116L140.936 3.00227L140.877 3.14873L140.816 3.29718V3.35656L140.877 3.44216L141.025 3.70812L141.289 4.41595L141.554 5.03446L141.79 5.47583L141.849 5.76802L141.79 6.09212L141.554 6.56219L141.379 6.88679V6.97561L141.29 7.12405L141.643 7.59264L141.995 8.09438L143.058 9.47837L143.323 9.85987L143.382 9.97813L143.441 10.1253V10.2708L143.382 10.4207L143.323 10.5373L143.147 10.6837L142.968 10.7748H142.823L142.765 10.6837L142.703 10.5971L142.528 10.4207V10.1553L142.468 9.91949L142.262 9.59638L141.995 9.27228L141.643 8.97762L141.29 8.74332L140.936 8.39077V9.03403L141.025 9.47787L141.171 10.1246L141.379 11.0939L141.554 12.0093L141.643 12.8926L141.791 14.1296V15.5128L141.702 15.7194L141.643 15.9542L141.493 16.1596L141.232 16.3929L140.937 16.48ZM107.628 4.47434L107.687 4.76652L107.805 4.91497V4.68018L107.863 4.41545L107.983 4.26701L108.127 4.06216L108.424 3.70861L108.482 3.59308L108.602 3.35705L108.689 2.67767V1.88424L108.482 2.44313L108.424 2.67743L108.188 2.94215L108.128 3.09059L107.983 3.23731L107.863 3.29668L107.687 3.23731L107.54 3.64973L107.452 4.06117V4.26602L107.628 4.47434ZM126.492 19.2499L126.847 20.072L126.906 20.1614L127.054 20.2786H127.114L127.259 20.3652L127.556 20.4558H127.851L128.498 20.3652H129V18.837L129.058 18.1598L129.206 17.2756L129.296 16.571L129.352 16.1581V16.0712L129.296 16.1591L129.206 16.3939L129.058 16.572L128.941 16.7189L128.675 16.8944L128.498 17.0428L127.673 17.926L127.055 18.6339L126.492 19.2499ZM116.442 17.0413L116.736 17.8083L116.913 18.5139L117.179 17.0423L117.237 16.3362V16.0712L117.179 16.1591L116.912 16.4517L116.822 16.6576L116.442 17.0413ZM107.096 18.6321L106.833 19.4854L106.744 19.8956L106.683 20.1626L106.744 20.2799L106.833 20.5441L106.949 20.6614L107.096 20.8689L107.451 21.1626L107.893 21.5166L107.687 21.1626L107.54 20.956L107.391 20.6913V20.6614L107.628 20.457L107.686 20.2799L107.804 20.1626L107.628 19.8086L107.391 19.4854L107.096 18.6321ZM114.908 10.1246L114.555 9.91875L114.261 9.77278V10.4774L114.348 10.9492L114.406 11.5393L114.555 12.0984L114.82 12.8339L115.115 13.5385L115.791 15.1578L115.999 14.6877L116.145 13.8928L116.294 13.0685V12.2741L116.235 12.0981V12.0088L116.146 12.0981V12.157L116.118 12.3619L116.058 12.5695L115.882 12.8337V12.8921H115.616L115.321 12.8337L115.115 12.6578L115.055 12.5093L114.908 12.3626V12.0979L114.969 11.7426L115.055 11.449L114.969 11.037L114.908 10.1246ZM112.315 15.9525L113.021 17.2754L113.227 17.807L113.286 18.0109V18.2769L113.787 17.5703L114.347 16.8936L113.847 16.1581L113.377 15.5114L113.229 15.1573L113.111 14.8043L112.935 14.4812V14.0094L112.669 15.0401L112.521 15.5101L112.315 15.9525ZM119.625 8.15252L119.507 8.0355L119.448 7.94841L119.095 11.3008L119.153 13.0093V15.7177L119.299 15.3936L119.447 15.0401V14.6875L119.506 14.1279L119.713 13.0093L119.919 11.8908L120.216 10.7738V10.1553L120.305 9.53676L120.097 9.21513L119.832 8.80097L119.626 8.38953L119.625 8.15252ZM111.49 21.4563L111.43 21.5152L111.579 21.5728L111.696 21.6606L112.05 21.7205L112.64 21.7799L112.316 21.2198L111.638 19.6L112.109 19.2497L111.933 18.8367L111.755 18.3667L111.579 17.9253L111.431 17.8083L111.342 17.6598L111.225 17.8669L111.077 18.0119L110.928 18.1603L110.723 18.3664V19.5443L110.78 20.1628L110.869 20.457L110.928 20.6913H111.282L111.428 20.7806H111.577L111.637 20.956L111.753 21.0149V21.1633L111.872 21.3699H111.637L111.49 21.4563ZM109.602 20.8672L109.544 20.5426V20.0725L109.398 20.2791L109.19 20.6606L109.602 20.8672ZM109.074 18.0107L108.746 17.3939L108.364 16.6573L108.128 16.9525L108.247 17.1885L108.364 17.5121L108.482 18.2172L108.602 18.7764L109.074 18.0107ZM104.151 18.7761L104.386 18.8071L104.622 18.8664L104.829 18.9835L105.006 19.1302L105.152 19.3078L105.272 19.5117L105.329 19.7487L105.357 19.9852L105.329 20.22L105.272 20.4553L105.152 20.6596L105.006 20.8378L104.829 20.985L104.622 21.0743L104.386 21.1609H103.913L103.679 21.0743L103.503 20.985L103.325 20.8378L103.177 20.6596L103.058 20.4553L102.972 20.22V19.7499L103.058 19.5129L103.177 19.309L103.325 19.1314L103.503 18.9847L103.679 18.8677L103.913 18.8083L104.151 18.7761ZM104.151 18.9266L103.943 18.9533L103.738 19.0126L103.562 19.1002L103.413 19.2487L103.297 19.3954L103.178 19.5713L103.119 19.7776L103.09 19.9842L103.119 20.1908L103.178 20.3942L103.297 20.5733L103.413 20.7183L103.562 20.8667L103.738 20.9538L103.943 21.0127L104.151 21.0431L104.358 21.0127L104.562 20.9538L104.741 20.8667L104.915 20.7183L105.036 20.5733L105.124 20.3942L105.183 20.1908L105.212 19.9842L105.183 19.7776L105.124 19.5713L105.036 19.3954L104.915 19.2487L104.741 19.1002L104.562 19.0126L104.358 18.9533L104.151 18.9266ZM104.769 19.6898L104.74 19.6L104.71 19.484L104.652 19.4241L104.562 19.3363L104.505 19.3078L104.386 19.2494H104.298L104.208 19.2195L104.032 19.2494L103.914 19.3078L103.798 19.3657L103.679 19.4545L103.62 19.5723L103.562 19.69L103.532 19.8368V20.1314L103.562 20.2502L103.62 20.3952L103.679 20.5154L103.798 20.6025L103.914 20.6596L104.032 20.719H104.327L104.416 20.6896L104.532 20.6317L104.622 20.574L104.682 20.4852L104.741 20.3949L104.77 20.2784L104.799 20.1611H104.652L104.622 20.337L104.505 20.4855L104.446 20.5426L104.386 20.5743L104.298 20.6027H104.061L103.943 20.5429L103.858 20.4857L103.797 20.4263L103.738 20.3081L103.679 20.2202L103.648 20.102V19.866L103.679 19.7489L103.738 19.6302L103.797 19.5436L103.858 19.4548L103.943 19.3964L104.061 19.3659L104.208 19.3365L104.356 19.3659L104.474 19.4548L104.591 19.5436L104.65 19.69L104.769 19.6898ZM0 0.0875817H106.683L107.451 0.146959H107.805L108.126 0.207326L108.363 0.35379L108.481 0.49976L108.6 0.61802L108.687 0.854045L108.745 0.706839L108.923 0.49976L109.072 0.35379L109.187 0.207326L109.541 0.146959L109.807 0.0875817L110.1 0.146959L110.366 0.207326L110.602 0.265714L110.779 0.41292L110.928 0.618267L110.985 0.766711L111.075 0.97379V1.76722L110.927 2.20958L110.778 2.53368L110.512 2.94339L110.307 3.15096L110.159 3.23929L110.041 3.29866L109.895 3.35804L109.746 3.29866L109.807 3.65171L109.895 4.00426L110.041 4.268L110.159 4.56266L110.425 5.15223L110.722 5.53571L110.78 5.91671L110.868 6.09311L111.222 5.26925L111.281 5.03545L111.339 4.82788L111.428 4.62129L111.576 4.41694L111.871 4.00402L112.106 3.65146L112.196 3.44339L112.253 3.15071L112.431 2.67842V2.26599L112.313 1.32387V0.97181L112.431 0.61703L112.518 0.49877L112.637 0.352801L112.784 0.206337L113.019 0.145969L113.284 0.0865921H113.845L114.082 0.145969L114.345 0.264724L114.493 0.411931L114.613 0.617278L114.701 0.765721L114.758 0.9728L114.818 1.26647V1.70784L114.758 2.14872L114.613 2.53269L114.404 2.88574L114.198 3.14997L114.083 3.2383L113.993 3.29767H113.845L113.785 3.2383L113.639 3.85681L113.579 4.06166L113.639 4.20887L113.726 4.56142L113.934 5.15099L114.082 5.38528L114.198 5.76777V6.09188L114.259 6.56195V7.88854L114.345 8.035L114.493 8.15202L114.818 8.6221V8.23961L114.906 7.94643L115.614 5.91374L115.997 4.91398L116.144 4.55994L116.292 4.35459L116.735 4.00154L117.235 3.64899L117.704 3.29594L118.001 3.00178L118.12 2.88401V2.61755L118.001 2.20661L117.942 1.76425L117.855 1.32288L118.001 0.910949L118.12 0.705107L118.238 0.498028L118.446 0.263735L118.651 0.14498L118.945 0.0856024H119.297L119.624 0.14498L119.918 0.205347L120.154 0.351811L120.302 0.497781L120.329 0.704859L120.418 0.970821V2.05941L120.329 2.35209L120.214 2.53022L120.153 2.76501L119.977 2.93992L119.828 3.00103H119.712L119.504 3.08936H119.296L119.211 3.14775V3.23607L119.296 3.35482V3.59085L119.211 3.70639V3.7957L119.296 4.00105L119.358 4.20714L119.446 4.47236L119.623 5.2074L119.771 5.70815L119.977 6.20816L120.154 5.8556L120.214 5.47361L120.419 5.14901L120.655 4.7643L120.714 4.41397L120.773 3.85508L121.038 2.35234L121.274 1.64574L121.481 0.910701L121.626 0.704859L121.747 0.410694L121.982 0.205347L122.187 0.14498L122.453 0.0856024H123.013L123.219 0.14498L123.486 0.263735L123.721 0.410941L123.81 0.616288L123.955 0.764732L124.015 1.2061V1.70685L123.955 2.06089L123.81 2.44239L123.721 2.76649L123.396 3.09059L123.308 3.14898H123.159L123.011 3.23731L122.894 3.14898L122.805 3.79669V4.20813L122.894 4.56068L123.011 5.03372L123.542 5.91473L123.779 6.35759V6.56145L123.808 6.7099L123.779 6.88531L123.602 7.32717L123.542 7.68072L123.484 7.8873V8.03376L123.602 8.15079L123.72 8.3878L124.014 8.79924L124.752 9.41775L125.162 9.59366L125.723 9.97565L126.225 10.3304L126.373 10.4754L126.431 10.5947L126.489 10.829L126.431 10.9472L126.373 11.0922L126.285 11.2431L126.078 11.2993H125.522L125.463 11.0922L125.227 10.829L125.052 10.5947L124.755 10.3314L124.487 10.1238L124.104 9.91801L123.783 9.77204L123.398 9.53453L123.488 10.2696V10.8302L123.605 11.3003L123.783 11.9487L124.195 13.1271L124.755 14.5398L125.165 15.8055L125.403 16.2175L125.461 16.4817L125.668 17.1002L125.874 17.5703L127.054 15.9527L127.79 15.1007L127.939 14.8936L128.025 14.4812L128.264 13.5381L128.498 12.5692L128.587 12.2741L128.349 11.7429L128.176 11.301V10.9499L128.499 10.1256L128.676 9.59663V9.3606L128.794 8.62506V8.09487H128.676L128.589 8.53724L128.177 9.42048L128.027 9.86012L127.94 10.3332L127.852 10.775V11.302L127.792 11.5974L127.675 11.7439L127.615 11.8923L127.467 12.0101L127.26 12.2755H127.056L126.996 12.1585L126.848 12.0996L126.701 11.9512L126.555 11.8047V11.5388L126.759 11.3008L126.906 11.1837L126.995 11.0373V10.8908L126.906 10.4207V9.47861L127.055 8.47662L127.115 7.88977L127.229 7.53574L127.554 6.62306L127.967 5.76876L128.348 4.82862L128.674 4.26849L129.057 3.85879L129.411 3.59456L129.617 3.35854L129.763 3.23978L129.912 3.09307L129.97 3.00474V2.88451L129.912 2.67644L129.852 2.35332L129.763 2.06064V1.76376L129.705 1.46959L129.763 1.11555L129.852 0.851818L130.059 0.497781L130.117 0.351811L130.234 0.205347L130.413 0.14498L130.529 0.0856024L130.853 0.0284517L131.148 0.0856024L131.414 0.14498L131.562 0.205347L131.975 0.410694H132.093L132.122 0.556663L132.21 0.705107L132.269 0.910949L132.387 1.1158V1.58859L132.269 1.82462L132.122 2.26475L132.093 2.44115L131.975 2.67545L131.831 2.88451L131.651 3.00227L131.445 3.09059L131.24 3.14898H131.15V3.23731L131.092 3.44166L131.15 3.70762V3.85607L131.092 4.00204V5.91449L131.15 6.5612L131.328 7.12232L131.446 7.44395L131.504 7.59116L131.565 7.68146L132.125 7.32792L132.773 6.82766L133.57 6.26753L135.926 9.21166L134.364 10.5355L134.423 10.682V10.8304H134.364V10.8903L134.158 11.0368L134.099 11.1832L133.951 11.3003L133.804 11.3908H133.51L133.361 11.2441L132.036 12.3611L131.24 11.3003L131.327 11.5957L131.415 12.4485V13.6264L131.327 14.333L131.15 15.0396L131.24 15.7172V16.5705L131.15 16.7175L131.091 16.8929L130.737 18.8362L130.591 20.2195L130.53 20.6896V21.102L130.827 21.3672L131.092 21.5726L131.416 21.7796L131.565 21.8667H131.888L132.125 21.9266L132.389 22.075L132.448 22.1334V22.2811L132.389 22.3395L132.212 22.4273H128.999L128.941 22.3395V22.2811L128.881 22.2222L128.941 22.0763V21.6616L128.999 21.1032L128.084 21.3684L127.229 21.7208L126.905 21.8672L126.699 21.9842L126.491 22.1327H126.228L126.079 21.9842L126.02 21.8672V21.6606L125.933 21.3081L125.873 20.9545L125.522 20.3652L125.463 20.5429L125.405 20.6601L125.314 21.0137L125.405 21.3677L125.463 21.7208V21.8672L125.522 21.9271L125.786 21.9842L126.023 22.1327L126.082 22.2205L126.141 22.3375H126.082L126.023 22.4254H125.522L125.166 22.3375L124.962 22.2791L124.815 22.2203L124.695 22.0743L124.578 21.9259L124.342 21.5139L124.018 21.1599L123.606 20.364L123.546 20.219V20.0706L123.606 19.9545L123.784 19.8929L124.105 19.5421L124.577 19.2484L124.695 19.189L124.756 19.0693L124.488 18.4231L124.195 17.7464L123.901 17.1875L123.606 16.6564L122.809 15.5099L122.544 14.9804L122.25 14.3909L122.042 13.8013V13.5366L121.984 13.3023L121.896 13.8013L121.749 14.2714L121.542 14.7414L121.334 15.1534L120.922 15.9488L120.42 16.7142L119.92 17.5087L119.36 18.2732L119.153 18.715L118.947 19.1269L118.798 19.5399L118.653 20.0683L118.594 20.4518V20.7754H119.212L119.713 20.6861H119.98L120.156 20.7754L120.217 20.8637V21.1574L119.92 21.364L119.299 21.717L119.448 21.8635H119.714L119.978 21.9234L120.097 21.9805L120.155 22.2175V22.2811L120.097 22.3395L119.919 22.4273H116.823L116.736 22.3395L116.678 22.2225V21.6619L116.736 21.1624L116.294 20.6027L115.881 19.8944L115.527 19.1905L115.172 18.4236L114.405 19.2489L113.995 19.8071L113.847 19.9555L113.787 20.0715L113.728 20.1609L113.787 20.2781L113.847 20.4553L113.995 20.6022L114.141 20.6893L114.348 20.7786H115.469L115.882 20.6893L116.294 20.7786H116.353L116.53 20.867L116.619 21.0129V21.1614L116.53 21.3086L116.443 21.368L116.146 21.5164L115.615 21.7811L115.172 21.9855L114.82 22.2225L114.555 22.2814L114.261 22.3398L113.995 22.4276H113.436L113.287 22.3398L113.229 22.2814L113.17 22.1347V22.2225L113.111 22.3395H112.935L112.669 22.4273H108.601L108.512 22.3395L108.482 22.2225L108.424 22.3395L108.364 22.4273H107.452L106.683 22.3395H0V1.07844V0.0875817Z" fill="white"/>
</svg>
